<svg width="645" height="645" viewBox="0 0 645 645" fill="none" xmlns="http://www.w3.org/2000/svg">
<path d="M645 322.5C645 500.612 500.612 645 322.5 645C144.388 645 0 500.612 0 322.5C0 144.388 144.388 0 322.5 0C500.612 0 645 144.388 645 322.5Z" fill="url(#paint0_linear_2201_22)"/>
<path d="M427.317 417.912C404.985 417.912 385.792 413.072 369.739 403.393C353.677 393.723 341.336 380.227 332.717 362.903C324.108 345.569 319.803 325.526 319.803 302.775C319.803 280.024 324.108 259.931 332.717 242.495C341.336 225.06 353.677 211.452 369.739 201.671C385.792 191.89 404.985 187 427.317 187C454.328 187 476.448 193.698 493.676 207.093C510.903 220.489 521.644 239.412 525.898 263.864H479C476.235 251.957 470.442 242.657 461.621 235.965C452.789 229.262 441.248 225.911 426.998 225.911C413.811 225.911 402.483 229.049 393.014 235.327C383.554 241.594 376.272 250.418 371.168 261.799C366.063 273.169 363.511 286.828 363.511 302.775C363.511 318.509 366.063 332.117 371.168 343.599C376.272 355.081 383.554 363.905 393.014 370.071C402.483 376.237 413.811 379.32 426.998 379.32C441.248 379.32 452.733 376.187 461.453 369.919C470.174 363.642 475.916 354.868 478.681 343.599H525.898C521.644 366.775 510.903 384.955 493.676 398.138C476.448 411.321 454.328 417.912 427.317 417.912Z" fill="#E4032A"/>
<path d="M251.4 415.656H198.406L117 191.219H162.97L224.903 371.41L287.154 191.219H332.806" fill="white"/>
<path d="M522.395 442.783H127.494C123.316 442.783 119.929 446.603 119.929 451.315C119.929 456.028 123.316 459.848 127.494 459.848H522.395C526.573 459.848 529.96 456.028 529.96 451.315C529.96 446.603 526.573 442.783 522.395 442.783Z" fill="url(#paint1_linear_2201_22)"/>
<defs>
<linearGradient id="paint0_linear_2201_22" x1="41.722" y1="21.4248" x2="577.906" y2="580.162" gradientUnits="userSpaceOnUse">
<stop stop-color="#0F2D5C"/>
<stop offset="1" stop-color="#07111F"/>
</linearGradient>
<linearGradient id="paint1_linear_2201_22" x1="119.929" y1="442.783" x2="529.96" y2="442.783" gradientUnits="userSpaceOnUse">
<stop stop-color="#E4032A"/>
<stop offset="1" stop-color="#00ACC1"/>
</linearGradient>
</defs>
</svg>
